<mxfile host="65bd71144e">
    <diagram id="emVRO3fbwTdRS-d10v4r" name="Page-1">
        <mxGraphModel dx="647" dy="515" grid="1" gridSize="10" guides="1" tooltips="1" connect="1" arrows="1" fold="1" page="1" pageScale="1" pageWidth="850" pageHeight="1100" math="0" shadow="0">
            <root>
                <mxCell id="0"/>
                <mxCell id="1" parent="0"/>
                <mxCell id="31" value="" style="rounded=0;whiteSpace=wrap;html=1;fillColor=default;strokeWidth=2;" parent="1" vertex="1">
                    <mxGeometry x="40" y="120" width="520" height="520" as="geometry"/>
                </mxCell>
                <mxCell id="2" value="" style="rounded=1;whiteSpace=wrap;html=1;fillColor=#e3c800;fontColor=#000000;strokeColor=#B09500;" parent="1" vertex="1">
                    <mxGeometry x="80" y="200" width="120" height="200" as="geometry"/>
                </mxCell>
                <mxCell id="3" value="Worker Node" style="text;html=1;strokeColor=none;fillColor=none;align=center;verticalAlign=middle;whiteSpace=wrap;rounded=0;fontStyle=1;fontSize=14;fontColor=#000000;" parent="1" vertex="1">
                    <mxGeometry x="92.5" y="210" width="95" height="30" as="geometry"/>
                </mxCell>
                <mxCell id="6" value="" style="rounded=1;whiteSpace=wrap;html=1;fillColor=#e3c800;fontColor=#000000;strokeColor=#B09500;" parent="1" vertex="1">
                    <mxGeometry x="240" y="200" width="120" height="200" as="geometry"/>
                </mxCell>
                <mxCell id="7" value="Worker Node" style="text;html=1;strokeColor=none;fillColor=none;align=center;verticalAlign=middle;whiteSpace=wrap;rounded=0;fontStyle=1;fontSize=14;fontColor=#000000;" parent="1" vertex="1">
                    <mxGeometry x="252.5" y="210" width="95" height="30" as="geometry"/>
                </mxCell>
                <mxCell id="8" value="" style="rounded=1;whiteSpace=wrap;html=1;fillColor=#e3c800;fontColor=#000000;strokeColor=#B09500;" parent="1" vertex="1">
                    <mxGeometry x="400" y="200" width="120" height="200" as="geometry"/>
                </mxCell>
                <mxCell id="9" value="Worker Node" style="text;html=1;strokeColor=none;fillColor=none;align=center;verticalAlign=middle;whiteSpace=wrap;rounded=0;fontStyle=1;fontSize=14;fontColor=#000000;" parent="1" vertex="1">
                    <mxGeometry x="412.5" y="210" width="95" height="30" as="geometry"/>
                </mxCell>
                <mxCell id="22" style="edgeStyle=none;html=1;entryX=0.5;entryY=1;entryDx=0;entryDy=0;" parent="1" source="10" target="2" edge="1">
                    <mxGeometry relative="1" as="geometry"/>
                </mxCell>
                <mxCell id="23" style="edgeStyle=none;html=1;" parent="1" source="10" target="6" edge="1">
                    <mxGeometry relative="1" as="geometry"/>
                </mxCell>
                <mxCell id="24" style="edgeStyle=none;html=1;entryX=0.5;entryY=1;entryDx=0;entryDy=0;" parent="1" source="10" target="8" edge="1">
                    <mxGeometry relative="1" as="geometry"/>
                </mxCell>
                <mxCell id="10" value="" style="rounded=1;whiteSpace=wrap;html=1;dashed=1;fillColor=#5C4B6B;fontColor=#ffffff;strokeColor=#432D57;strokeWidth=3;" parent="1" vertex="1">
                    <mxGeometry x="80" y="480" width="440" height="110" as="geometry"/>
                </mxCell>
                <mxCell id="11" value="Master Nodes" style="text;html=1;strokeColor=none;fillColor=none;align=center;verticalAlign=middle;whiteSpace=wrap;rounded=0;fontStyle=1;fontSize=14;" parent="1" vertex="1">
                    <mxGeometry x="90" y="490" width="70" height="30" as="geometry"/>
                </mxCell>
                <mxCell id="14" value="Master Node" style="rounded=1;whiteSpace=wrap;html=1;fontStyle=1;fillColor=#76608a;strokeColor=#432D57;fontColor=#ffffff;gradientColor=none;" parent="1" vertex="1">
                    <mxGeometry x="160" y="520" width="102.5" height="60" as="geometry"/>
                </mxCell>
                <mxCell id="17" value="Master Node" style="rounded=1;whiteSpace=wrap;html=1;fontStyle=1;fillColor=#76608a;strokeColor=#432D57;fontColor=#ffffff;" parent="1" vertex="1">
                    <mxGeometry x="280" y="520" width="102.5" height="60" as="geometry"/>
                </mxCell>
                <mxCell id="18" value="Master Node" style="rounded=1;whiteSpace=wrap;html=1;fontStyle=1;fillColor=#76608a;strokeColor=#432D57;fontColor=#ffffff;" parent="1" vertex="1">
                    <mxGeometry x="400" y="520" width="102.5" height="60" as="geometry"/>
                </mxCell>
                <mxCell id="25" value="Kubelet" style="rounded=1;whiteSpace=wrap;html=1;fillColor=#0050ef;fontColor=#ffffff;strokeColor=#001DBC;" parent="1" vertex="1">
                    <mxGeometry x="95" y="350" width="90" height="40" as="geometry"/>
                </mxCell>
                <mxCell id="26" value="Kubelet" style="rounded=1;whiteSpace=wrap;html=1;fillColor=#0050ef;fontColor=#ffffff;strokeColor=#001DBC;" parent="1" vertex="1">
                    <mxGeometry x="255" y="350" width="90" height="40" as="geometry"/>
                </mxCell>
                <mxCell id="27" value="Kubelet" style="rounded=1;whiteSpace=wrap;html=1;fillColor=#0050ef;fontColor=#ffffff;strokeColor=#001DBC;" parent="1" vertex="1">
                    <mxGeometry x="415" y="350" width="90" height="40" as="geometry"/>
                </mxCell>
                <mxCell id="28" value="Container Runtime" style="rounded=1;whiteSpace=wrap;html=1;fillColor=#1ba1e2;fontColor=#ffffff;strokeColor=#006EAF;" parent="1" vertex="1">
                    <mxGeometry x="95" y="300" width="90" height="40" as="geometry"/>
                </mxCell>
                <mxCell id="29" value="Container Runtime" style="rounded=1;whiteSpace=wrap;html=1;fillColor=#1ba1e2;fontColor=#ffffff;strokeColor=#006EAF;" parent="1" vertex="1">
                    <mxGeometry x="255" y="300" width="90" height="40" as="geometry"/>
                </mxCell>
                <mxCell id="30" value="Container Runtime" style="rounded=1;whiteSpace=wrap;html=1;fillColor=#1ba1e2;fontColor=#ffffff;strokeColor=#006EAF;" parent="1" vertex="1">
                    <mxGeometry x="415" y="300" width="90" height="40" as="geometry"/>
                </mxCell>
                <mxCell id="32" value="Kubernetes&lt;br style=&quot;font-size: 14px;&quot;&gt;Cluster" style="text;html=1;align=left;verticalAlign=middle;resizable=0;points=[];autosize=1;strokeColor=none;fillColor=none;fontStyle=1;fontSize=14;" parent="1" vertex="1">
                    <mxGeometry x="110" y="134" width="90" height="40" as="geometry"/>
                </mxCell>
                <mxCell id="34" value="" style="sketch=0;aspect=fixed;html=1;points=[];align=center;image;fontSize=12;image=img/lib/mscae/Kubernetes.svg;fillColor=default;" parent="1" vertex="1">
                    <mxGeometry x="50" y="130" width="50" height="48" as="geometry"/>
                </mxCell>
                <mxCell id="35" value="Kubectl" style="ellipse;whiteSpace=wrap;html=1;fontSize=14;fillColor=#0050ef;fontColor=#ffffff;strokeColor=#001DBC;" parent="1" vertex="1">
                    <mxGeometry x="710" y="460" width="90" height="50" as="geometry"/>
                </mxCell>
                <mxCell id="37" value="UI" style="ellipse;whiteSpace=wrap;html=1;fontSize=14;fillColor=#0050ef;fontColor=#ffffff;strokeColor=#001DBC;opacity=40;" parent="1" vertex="1">
                    <mxGeometry x="710" y="550" width="90" height="50" as="geometry"/>
                </mxCell>
                <mxCell id="38" style="edgeStyle=none;html=1;fontSize=12;" parent="1" source="35" target="10" edge="1">
                    <mxGeometry relative="1" as="geometry"/>
                </mxCell>
                <mxCell id="39" style="edgeStyle=none;html=1;fontSize=12;" parent="1" source="37" target="10" edge="1">
                    <mxGeometry relative="1" as="geometry"/>
                </mxCell>
                <mxCell id="41" value="Pod" style="rounded=1;whiteSpace=wrap;html=1;fillColor=#a0522d;fontColor=#ffffff;strokeColor=#6D1F00;" vertex="1" parent="1">
                    <mxGeometry x="259" y="260" width="35" height="30" as="geometry"/>
                </mxCell>
                <mxCell id="42" value="Pod" style="rounded=1;whiteSpace=wrap;html=1;fillColor=#a0522d;fontColor=#ffffff;strokeColor=#6D1F00;" vertex="1" parent="1">
                    <mxGeometry x="304" y="260" width="35" height="30" as="geometry"/>
                </mxCell>
                <mxCell id="44" value="Pod" style="rounded=1;whiteSpace=wrap;html=1;fillColor=#a0522d;fontColor=#ffffff;strokeColor=#6D1F00;" vertex="1" parent="1">
                    <mxGeometry x="107.5" y="260" width="35" height="30" as="geometry"/>
                </mxCell>
            </root>
        </mxGraphModel>
    </diagram>
    <diagram id="s2I4ffcM6wquDRJbTkNw" name="Page-2">
        <mxGraphModel dx="617" dy="355" grid="1" gridSize="10" guides="1" tooltips="1" connect="1" arrows="1" fold="1" page="1" pageScale="1" pageWidth="850" pageHeight="1100" math="0" shadow="0">
            <root>
                <mxCell id="KdR4U7TqsE0vkO7Y1LEo-0"/>
                <mxCell id="KdR4U7TqsE0vkO7Y1LEo-1" parent="KdR4U7TqsE0vkO7Y1LEo-0"/>
                <mxCell id="KdR4U7TqsE0vkO7Y1LEo-2" value="" style="rounded=0;whiteSpace=wrap;html=1;sketch=1;fillStyle=hachure;fillColor=#1ba1e2;strokeWidth=2;fontColor=#ffffff;strokeColor=#006EAF;" vertex="1" parent="KdR4U7TqsE0vkO7Y1LEo-1">
                    <mxGeometry x="240" y="160" width="200" height="200" as="geometry"/>
                </mxCell>
                <mxCell id="KdR4U7TqsE0vkO7Y1LEo-7" value="Pod" style="text;html=1;align=center;verticalAlign=middle;whiteSpace=wrap;rounded=0;sketch=1;fillStyle=solid;fillColor=#a0522d;fontColor=#ffffff;strokeColor=#6D1F00;" vertex="1" parent="KdR4U7TqsE0vkO7Y1LEo-1">
                    <mxGeometry x="245" y="170" width="60" height="20" as="geometry"/>
                </mxCell>
                <mxCell id="KdR4U7TqsE0vkO7Y1LEo-9" value="" style="ellipse;whiteSpace=wrap;html=1;aspect=fixed;sketch=1;fillStyle=solid;strokeWidth=1;fillColor=#0050ef;fontColor=#ffffff;strokeColor=#001DBC;" vertex="1" parent="KdR4U7TqsE0vkO7Y1LEo-1">
                    <mxGeometry x="280" y="200" width="140" height="140" as="geometry"/>
                </mxCell>
                <mxCell id="KdR4U7TqsE0vkO7Y1LEo-8" value="nginx&lt;br&gt;container" style="ellipse;whiteSpace=wrap;html=1;aspect=fixed;sketch=1;fillStyle=solid;strokeWidth=2;fillColor=#1ba1e2;fontColor=#ffffff;strokeColor=#006EAF;" vertex="1" parent="KdR4U7TqsE0vkO7Y1LEo-1">
                    <mxGeometry x="300" y="210" width="80" height="80" as="geometry"/>
                </mxCell>
                <mxCell id="KdR4U7TqsE0vkO7Y1LEo-10" value="containers" style="text;html=1;align=center;verticalAlign=middle;resizable=0;points=[];autosize=1;strokeColor=none;fillColor=none;" vertex="1" parent="KdR4U7TqsE0vkO7Y1LEo-1">
                    <mxGeometry x="315" y="310" width="70" height="20" as="geometry"/>
                </mxCell>
            </root>
        </mxGraphModel>
    </diagram>
</mxfile>